<svg xmlns="http://www.w3.org/2000/svg" width="21.371" height="21.969" viewBox="0 0 21.371 21.969">
  <g id="noun-date-1430269-084E96" transform="translate(-58.802 -43.189)">
    <path id="Path_2177" data-name="Path 2177" d="M64.416,43.189H61.929a.474.474,0,0,0-.474.474V45.3h-.284A2.369,2.369,0,0,0,58.8,47.667V60.435A2.369,2.369,0,0,0,61.171,62.8H68.68a6.491,6.491,0,1,0,8.552-9.57V47.666A2.369,2.369,0,0,0,74.863,45.3h-.308V43.663a.474.474,0,0,0-.474-.474H71.594a.474.474,0,0,0-.474.474V45.3H64.89V43.663a.474.474,0,0,0-.474-.474Zm-2.014.948h1.54v2.629H62.4ZM79.221,58.658a5.567,5.567,0,1,1-1.63-3.913,5.543,5.543,0,0,1,1.63,3.913Zm-5.543-6.491a6.491,6.491,0,0,0-5.661,9.688h-6.87a1.421,1.421,0,0,1-1.421-1.421V50.154H76.284v2.558a6.466,6.466,0,0,0-2.606-.545Zm-1.611-8.03h1.54v2.629h-1.54Zm-.948,2.108v.995a.474.474,0,0,0,.474.474h2.487a.474.474,0,0,0,.474-.474v-.995h.308a1.421,1.421,0,0,1,1.421,1.421v1.54H59.749v-1.54a1.421,1.421,0,0,1,1.421-1.421h.308v.995h0a.474.474,0,0,0,.474.474h2.464a.474.474,0,0,0,.474-.474v-.995Z" transform="translate(0 0)" fill="#0e3d45"/>
    <path id="Path_2178" data-name="Path 2178" d="M772.8,658.8v3.79a.474.474,0,0,0,.474.474h3.008v-.948h-2.535V658.8Z" transform="translate(-699.904 -603.458)" fill="#0e3d45"/>
  </g>
</svg>
