<svg xmlns="http://www.w3.org/2000/svg" width="20" height="20" viewBox="0 0 20 20">
  <path id="noun-language-4995553-084E96" d="M24.969,31.163a9.046,9.046,0,0,0,3.816-2.148,13.69,13.69,0,0,0-2.251-.738,11.462,11.462,0,0,1-.433,1.081,7.561,7.561,0,0,1-1.132,1.805Zm4.5-2.866a9.023,9.023,0,0,0,2.15-5.406H27.429a18.835,18.835,0,0,1-.619,4.489,14.364,14.364,0,0,1,2.658.916Zm-3.858-.211a17.44,17.44,0,0,0-2.575-.254v3.584a4.184,4.184,0,0,0,2.218-2.45q.191-.414.357-.881ZM22.1,27.832a17.447,17.447,0,0,0-2.575.254q.165.465.357.881a4.187,4.187,0,0,0,2.218,2.45Zm-3.5.445a13.684,13.684,0,0,0-2.251.738,9.048,9.048,0,0,0,3.816,2.148,7.5,7.5,0,0,1-1.132-1.805c-.156-.338-.3-.7-.433-1.081Zm-2.933.02a14.318,14.318,0,0,1,2.658-.916,18.8,18.8,0,0,1-.619-4.489H13.516a9.022,9.022,0,0,0,2.15,5.406Zm3.575-1.111a18.391,18.391,0,0,1,2.858-.292v-4H18.642a17.788,17.788,0,0,0,.6,4.295Zm3.8-.292a18.239,18.239,0,0,1,2.858.292,17.814,17.814,0,0,0,.6-4.295H23.036ZM24.97,13.682a7.5,7.5,0,0,1,1.132,1.8c.156.338.3.7.433,1.081a13.683,13.683,0,0,0,2.251-.738,9.051,9.051,0,0,0-3.816-2.148Zm1.84,3.782a18.8,18.8,0,0,1,.619,4.489h4.188a9.022,9.022,0,0,0-2.15-5.406,14.3,14.3,0,0,1-2.658.916ZM17.7,21.954a18.835,18.835,0,0,1,.619-4.489,14.346,14.346,0,0,1-2.658-.916,9.02,9.02,0,0,0-2.15,5.406Zm.9-5.385a11.462,11.462,0,0,1,.433-1.081,7.542,7.542,0,0,1,1.132-1.8,9.049,9.049,0,0,0-3.816,2.148,13.709,13.709,0,0,0,2.251.738Zm6.654-.689a4.187,4.187,0,0,0-2.218-2.45v3.584a17.446,17.446,0,0,0,2.575-.254q-.165-.465-.357-.881ZM22.1,13.429a4.184,4.184,0,0,0-2.218,2.45q-.191.414-.357.881a17.439,17.439,0,0,0,2.575.254Zm-2.858,4.23a17.814,17.814,0,0,0-.6,4.295H22.1v-4a18.24,18.24,0,0,1-2.858-.292Zm7.251,4.295a17.792,17.792,0,0,0-.6-4.295,18.392,18.392,0,0,1-2.858.292v4Zm3.146,7.54a10,10,0,1,1,2.929-7.071,9.971,9.971,0,0,1-2.929,7.071Z" transform="translate(-12.568 -12.422)" fill="#7fac92"/>
</svg>
