<svg xmlns="http://www.w3.org/2000/svg" width="16.715" height="22.5" viewBox="0 0 16.715 22.5">
  <path id="noun-location-4791186" d="M23.13,11.283a2.405,2.405,0,1,1,0-3.4h0A2.406,2.406,0,0,1,23.13,11.283Zm-4.4-4.4a3.813,3.813,0,1,0,5.392,0,3.813,3.813,0,0,0-5.392,0Zm2.7,14.851,4.972-6.6c2.183-2.9,3.05-7.163.065-10.148a7.147,7.147,0,0,0-10.075,0h0c-2.985,2.986-2.119,7.248.065,10.148Zm8.35-11.844a7.829,7.829,0,0,0-2.319-5.9,8.552,8.552,0,0,0-12.062,0,7.828,7.828,0,0,0-2.319,5.9,10.81,10.81,0,0,0,2.254,6.085l4.982,6.617H18.039a.7.7,0,0,0,0,1.406h6.779a.7.7,0,0,0,0-1.406H22.542l4.982-6.617a10.818,10.818,0,0,0,2.255-6.085Z" transform="translate(-13.071 -1.5)" fill="#0e3d45" fill-rule="evenodd"/>
</svg>
