<svg xmlns="http://www.w3.org/2000/svg" width="71.086" height="64.073" viewBox="0 0 71.086 64.073">
  <g id="newsletter" transform="translate(-2.399 -61.42)">
    <path id="Path_2169" data-name="Path 2169" d="M73.483,85.394c.006-.033,0-.066,0-.1v-.116s0,0,0-.006a1.17,1.17,0,0,0-.514-.988l-7.162-4.7-3.382-2.225v-7a1.191,1.191,0,0,0-1.19-1.19H49.948L38.6,61.615a1.189,1.189,0,0,0-1.306,0L25.928,69.068H14.644a1.189,1.189,0,0,0-1.19,1.19v7.007L2.937,84.183l0,0a1.214,1.214,0,0,0-.339.336c-.012.018-.012.039-.024.056a1.183,1.183,0,0,0-.056.143,1.175,1.175,0,0,0-.1.375c0,.03-.021.053-.021.08V124.3a.308.308,0,0,0,.012.051,1.121,1.121,0,0,0,.063.309,1.146,1.146,0,0,0,.071.175c.018.033.021.068.042.1s.051.039.071.066a1.186,1.186,0,0,0,.318.291c.027.015.048.036.074.051a1.15,1.15,0,0,0,.541.146H72.3a1.147,1.147,0,0,0,.538-.146.8.8,0,0,0,.08-.053,1.121,1.121,0,0,0,.315-.289c.021-.027.051-.036.068-.062a.559.559,0,0,0,.039-.1,1.226,1.226,0,0,0,.074-.182,1.1,1.1,0,0,0,.063-.309c0-.018.009-.033.009-.051ZM37.941,123.113H7.536l25.807-16.956,3.944,2.594a1.188,1.188,0,0,0,1.309,0l3.944-2.594,25.807,16.956ZM4.778,87.384l26.4,17.352-26.4,17.343ZM44.7,104.732,71.1,87.384v34.691ZM62.422,80.118l3.052,2,4.652,3.06-7.7,5.062ZM37.953,64.033l7.662,5.035H30.268Zm22.09,7.415V91.8l-3.977,2.614a1.163,1.163,0,0,0,.2-.616,1.191,1.191,0,0,0-1.19-1.19H40.035a1.19,1.19,0,1,0,0,2.379H55.073a1.092,1.092,0,0,0,.172-.036l-4.875,3.2H40.041a1.19,1.19,0,1,0,0,2.379h6.707l-4.795,3.153a1,1,0,0,0-.149.1l-3.863,2.54L34.086,103.8a.933.933,0,0,0-.161-.1l-4.792-3.15h6.7a1.19,1.19,0,0,0,0-2.379H25.512l-4.869-3.2a.933.933,0,0,0,.158.033H35.844a1.19,1.19,0,0,0,0-2.379H20.8a1.189,1.189,0,0,0-1.19,1.19,1.143,1.143,0,0,0,.19.6L15.834,91.8V71.448ZM13.454,90.236l-7.7-5.059,7.7-5.062V90.236Z" transform="translate(0 0)" fill="#1e7786"/>
    <path id="Path_2170" data-name="Path 2170" d="M398.893,282.575h21.676a1.189,1.189,0,0,0,1.19-1.19V273.34a1.191,1.191,0,0,0-1.19-1.19H398.894a1.189,1.189,0,0,0-1.19,1.19v8.045a1.189,1.189,0,0,0,1.19,1.19Zm1.19-8.045h19.294V280.2H400.083Z" transform="translate(-371.79 -198.195)" fill="#1e7786"/>
    <path id="Path_2171" data-name="Path 2171" d="M292.94,494.729h15.044a1.19,1.19,0,0,0,0-2.379H292.94a1.19,1.19,0,1,0,0,2.379Z" transform="translate(-272.139 -405.296)" fill="#1e7786"/>
    <path id="Path_2172" data-name="Path 2172" d="M615.1,493.54a1.191,1.191,0,0,0,1.19,1.19h15.038a1.19,1.19,0,1,0,0-2.379H616.29A1.189,1.189,0,0,0,615.1,493.54Z" transform="translate(-576.255 -405.296)" fill="#1e7786"/>
  </g>
</svg>
