<svg xmlns="http://www.w3.org/2000/svg" width="27.022" height="32" viewBox="0 0 27.022 32">
  <path id="noun-share-677791-084E96" d="M334.511,259.918a5.35,5.35,0,0,0-5.333,5.333,5.257,5.257,0,0,0,.222,1.489l-7.944,5a5.334,5.334,0,1,0,.011,8.344l7.933,5a5.259,5.259,0,0,0-.222,1.5,5.347,5.347,0,1,0,1.222-3.389l-7.544-4.756a5.3,5.3,0,0,0-.011-5.044c2.5-1.591,5.038-3.174,7.555-4.756a5.331,5.331,0,1,0,4.111-8.722Zm0,2.133a3.2,3.2,0,1,1-3.2,3.2A3.184,3.184,0,0,1,334.511,262.051Zm-16.355,10.666a3.2,3.2,0,1,1-3.2,3.2A3.184,3.184,0,0,1,318.155,272.717Zm16.355,10.666a3.2,3.2,0,1,1-3.2,3.2A3.184,3.184,0,0,1,334.511,283.383Z" transform="translate(-312.822 -259.917)" fill="#fff"/>
</svg>
